<svg width="200" height="200" viewBox="0 0 200 200" fill="none" xmlns="http://www.w3.org/2000/svg">
    <circle cx="100" cy="100" r="100" fill="white"/>
    <path d="M170.522 64.7436L158.792 51.6736C158.499 51.3724 158.102 51.1937 157.682 51.1736L126.342 50.9636L88.7319 31.1536C88.5213 31.0525 88.2906 31 88.0569 31C87.8233 31 87.5926 31.0525 87.3819 31.1536L30.832 58.3436C30.5743 58.4731 30.3592 58.6736 30.2119 58.9215C30.0646 59.1693 29.9913 59.4542 30.0008 59.7424C30.0103 60.0306 30.1021 60.31 30.2653 60.5477C30.4285 60.7853 30.6564 60.9713 30.922 61.0836L100.922 89.1536L59.8319 124.964C59.5672 125.204 59.3945 125.529 59.3434 125.883C59.2923 126.237 59.3661 126.598 59.5519 126.904L85.9819 168.484C86.1363 168.72 86.3538 168.908 86.6097 169.027C86.8655 169.146 87.1496 169.191 87.4297 169.157C87.7097 169.122 87.9745 169.01 88.1941 168.833C88.4137 168.656 88.5792 168.42 88.6719 168.154L110.052 104.154L141.692 88.9736C141.997 88.8218 142.246 88.5766 142.402 88.2736L152.692 66.6436L169.352 67.2536C169.646 67.2612 169.936 67.1828 170.186 67.0279C170.436 66.8731 170.635 66.6486 170.76 66.3821C170.884 66.1155 170.928 65.8184 170.885 65.5274C170.843 65.2363 170.717 64.9639 170.522 64.7436ZM141.112 83.9736L135.472 70.8136L128.982 55.7536L128.222 53.9736L155.272 54.1636L141.112 83.9736ZM129.422 64.2736L110.162 81.0936L125.732 55.7136L127.902 60.7836L129.422 64.2736ZM123.852 53.0436L104.282 84.9536L90.4219 35.4336L123.852 53.0436ZM87.0719 34.6136L101.492 86.1436L35.202 59.5636L87.0719 34.6136ZM104.742 89.8036L130.642 67.2336L135.422 78.3836L139.072 86.9036L70.1419 119.964L104.742 89.8036ZM86.8219 164.274L62.9819 126.724L106.282 105.954L86.8219 164.274ZM154.092 63.6836L154.372 63.0936L158.062 55.3536L165.982 64.1136L154.092 63.6836Z" fill="black"/>
</svg>